HIERARCHY
ROOT joint_Root
{
	OFFSET 0.0 0.0 0.0
	CHANNELS 6 Xposition Yposition Zposition Zrotation Xrotation Yrotation 
	JOINT Hips
	{
		OFFSET -17.1583 93.1646 452.98
		CHANNELS 6 Xposition Yposition Zposition Zrotation Xrotation Yrotation 
		JOINT Spine
		{
			OFFSET 15.7357 0.0 0.0
			CHANNELS 6 Xposition Yposition Zposition Zrotation Xrotation Yrotation 
			JOINT Chest
			{
				OFFSET 8.98455 -0.406207 0.0
				CHANNELS 6 Xposition Yposition Zposition Zrotation Xrotation Yrotation 
				JOINT Neck
				{
					OFFSET 16.3773 0.0 0.0
					CHANNELS 6 Xposition Yposition Zposition Zrotation Xrotation Yrotation 
					JOINT Head
					{
						OFFSET 6.45672 0.0 0.0
						CHANNELS 6 Xposition Yposition Zposition Zrotation Xrotation Yrotation 
						End Site
						{
							OFFSET 0.0 0.0 0.0
						}
					}
				}
				JOINT Shoulder_L
				{
					OFFSET 12.9942 -0.242716 4.98039
					CHANNELS 6 Xposition Yposition Zposition Zrotation Xrotation Yrotation 
					JOINT UpperArm_L
					{
						OFFSET 5.34809 0.0 0.0
						CHANNELS 6 Xposition Yposition Zposition Zrotation Xrotation Yrotation 
						JOINT LowerArm_L
						{
							OFFSET 24.3286 1.87007e-05 0.0
							CHANNELS 6 Xposition Yposition Zposition Zrotation Xrotation Yrotation 
							JOINT Hand_L
							{
								OFFSET 22.2916 0.0 0.0
								CHANNELS 6 Xposition Yposition Zposition Zrotation Xrotation Yrotation 
								End Site
								{
									OFFSET 0.0 0.0 0.0
								}
							}
						}
					}
				}
				JOINT Shoulder_R
				{
					OFFSET 12.9945 -0.242716 -4.98039
					CHANNELS 6 Xposition Yposition Zposition Zrotation Xrotation Yrotation 
					JOINT UpperArm_R
					{
						OFFSET -5.34813 0.0 0.0
						CHANNELS 6 Xposition Yposition Zposition Zrotation Xrotation Yrotation 
						JOINT LowerArm_R
						{
							OFFSET -24.3289 0.000322201 0.0
							CHANNELS 6 Xposition Yposition Zposition Zrotation Xrotation Yrotation 
							JOINT Hand_R
							{
								OFFSET -22.2915 -0.000108084 0.0
								CHANNELS 6 Xposition Yposition Zposition Zrotation Xrotation Yrotation 
								End Site
								{
									OFFSET 0.0 0.0 0.0
								}
							}
						}
					}
				}
			}
		}
		JOINT UpperLeg_L
		{
			OFFSET -2.19248 -6.46944 0.0
			CHANNELS 6 Xposition Yposition Zposition Zrotation Xrotation Yrotation 
			JOINT LowerLeg_L
			{
				OFFSET 39.0811 0.0 -1.23785e-05
				CHANNELS 6 Xposition Yposition Zposition Zrotation Xrotation Yrotation 
				JOINT Foot_L
				{
					OFFSET 40.9854 0.0 -1.26872e-05
					CHANNELS 6 Xposition Yposition Zposition Zrotation Xrotation Yrotation 
					JOINT Toes_L
					{
						OFFSET 11.7543 0.0 0.0
						CHANNELS 6 Xposition Yposition Zposition Zrotation Xrotation Yrotation 
						End Site
						{
							OFFSET 0.0 0.0 0.0
						}
					}
				}
			}
		}
		JOINT UpperLeg_R
		{
			OFFSET -2.19251 6.46944 0.0
			CHANNELS 6 Xposition Yposition Zposition Zrotation Xrotation Yrotation 
			JOINT LowerLeg_R
			{
				OFFSET -39.0811 -0.00228153 -0.0401928
				CHANNELS 6 Xposition Yposition Zposition Zrotation Xrotation Yrotation 
				JOINT Foot_R
				{
					OFFSET -40.9854 0.0 0.0
					CHANNELS 6 Xposition Yposition Zposition Zrotation Xrotation Yrotation 
					JOINT Toes_R
					{
						OFFSET -11.7543 0.0 0.0
						CHANNELS 6 Xposition Yposition Zposition Zrotation Xrotation Yrotation 
						End Site
						{
							OFFSET 0.0 0.0 0.0
						}
					}
				}
			}
		}
	}
}
MOTION
Frames:	6
Frame Time:	0.0333333
0.000000 0.000000 0.000000 0.000000 0.000000 -0.000000 -2.771910 91.905300 2.378540 84.393300 -0.069058 1.240080 15.735700 0.000005 -0.000001 118.371000 88.264200 -117.872000 8.984550 -0.406207 -0.000000 -4.719200 1.593720 1.065310 16.377300 -0.000001 -0.000001 9.711640 -3.671070 -9.818340 6.456720 -0.000001 -0.000000 6.409720 -11.315600 -14.857100 12.994200 -0.242716 4.980390 -92.544300 6.813960 -69.468000 5.348090 -0.000007 -0.000001 -74.907600 7.733710 -9.317970 24.328600 0.000019 0.000005 40.678700 -43.127800 -128.498000 22.291600 -0.000001 0.000005 39.780700 5.030710 6.659070 12.994500 -0.242716 -4.980390 88.449700 4.968090 -72.644900 -5.348130 -0.000001 -0.000004 -74.325300 35.493500 -0.864147 -24.328900 0.000322 -0.000009 2.903410 7.840960 -20.400100 -22.291500 -0.000108 -0.000004 -0.823615 5.236040 1.798790 -2.192480 -6.469440 -0.000000 -172.412000 2.242180 -4.038280 39.081100 -0.000007 -0.000012 0.218961 -0.434520 26.744500 40.985400 -0.000006 -0.000013 -2.232550 7.288990 -76.038300 11.754300 -0.000000 0.000003 -0.000392 0.173977 -9.520050 -2.192510 6.469440 -0.000001 -171.229000 6.581450 -177.014000 -39.081100 -0.002282 -0.040193 0.027513 -0.093724 14.467300 -40.985400 0.000008 0.000006 0.279956 3.647390 -71.160900 -11.754300 -0.000006 -0.000006 -0.011149 0.279698 -5.207590
0.000000 0.000000 0.000000 0.000000 0.000000 -0.000000 -2.801720 91.906300 2.380590 84.417700 -0.044217 1.228670 15.735700 0.000005 -0.000001 116.708000 88.263000 -116.175000 8.984550 -0.406207 -0.000000 -4.670380 1.502130 1.127280 16.377300 -0.000001 -0.000001 9.710400 -3.677690 -9.768700 6.456720 -0.000001 -0.000000 6.367470 -11.273100 -14.799700 12.994200 -0.242716 4.980390 -92.534700 6.789310 -69.471200 5.348090 -0.000007 -0.000001 -74.957900 7.542520 -9.284030 24.328600 0.000019 0.000005 40.942900 -43.163800 -128.257000 22.291600 -0.000001 0.000005 39.839600 5.022100 6.845580 12.994500 -0.242716 -4.980390 88.441500 4.985270 -72.615400 -5.348130 -0.000001 -0.000004 -74.320100 35.395700 -0.831951 -24.328900 0.000322 -0.000009 2.894200 7.911590 -20.174900 -22.291500 -0.000108 -0.000004 -0.822899 5.237450 1.762230 -2.192480 -6.469440 -0.000000 -172.417000 2.289580 -4.025780 39.081100 -0.000007 -0.000012 0.213632 -0.425016 26.686400 40.985400 -0.000006 -0.000013 -2.136160 7.276340 -75.995900 11.754300 -0.000000 0.000003 -0.000306 0.172624 -9.575010 -2.192510 6.469440 -0.000001 -171.242000 6.692550 -177.008000 -39.081100 -0.002282 -0.040193 0.028471 -0.097684 14.432200 -40.985400 0.000008 0.000006 0.424179 3.732030 -71.177200 -11.754300 -0.000006 -0.000006 -0.011248 0.280406 -5.178590
0.000000 0.000000 0.000000 0.000000 0.000000 -0.000000 -2.836280 91.911800 2.369120 84.446600 -0.088924 1.198850 15.735700 0.000005 -0.000001 115.855000 88.254800 -115.299000 8.984550 -0.406207 -0.000000 -4.632580 1.460760 1.170350 16.377300 -0.000001 -0.000001 9.697600 -3.681350 -9.716390 6.456720 -0.000001 -0.000000 6.326410 -11.212900 -14.731400 12.994200 -0.242716 4.980390 -92.533200 6.781480 -69.461000 5.348090 -0.000007 -0.000001 -75.021200 7.405630 -9.285550 24.328600 0.000019 0.000005 41.251800 -43.232800 -127.990000 22.291600 -0.000001 0.000005 39.821100 5.017890 6.935240 12.994500 -0.242716 -4.980390 88.437200 4.993900 -72.598000 -5.348130 -0.000001 -0.000004 -74.335000 35.333300 -0.791052 -24.328900 0.000322 -0.000009 2.896770 7.997080 -19.993900 -22.291500 -0.000108 -0.000004 -0.793382 5.234600 1.836240 -2.192480 -6.469440 -0.000000 -172.419000 2.284040 -4.049120 39.081100 -0.000007 -0.000012 0.213742 -0.425666 26.663200 40.985400 -0.000006 -0.000013 -2.283330 7.263780 -75.980800 11.754300 -0.000000 0.000003 -0.000407 0.174217 -9.510290 -2.192510 6.469440 -0.000001 -171.252000 6.702810 -177.037000 -39.081100 -0.002282 -0.040193 0.028345 -0.097244 14.425400 -40.985400 0.000008 0.000006 0.368817 3.771590 -71.151300 -11.754300 -0.000006 -0.000006 -0.011225 0.280239 -5.185420
0.000000 0.000000 0.000000 0.000000 0.000000 -0.000000 -2.878190 91.915900 2.358060 84.474200 -0.148944 1.168470 15.735700 0.000005 -0.000001 115.285000 88.248600 -114.713000 8.984550 -0.406207 -0.000000 -4.606490 1.433090 1.202090 16.377300 -0.000001 -0.000001 9.647310 -3.692150 -9.662760 6.456720 -0.000001 -0.000000 6.348640 -11.208300 -14.658600 12.994200 -0.242716 4.980390 -92.535300 6.789090 -69.466500 5.348090 -0.000007 -0.000001 -75.030500 7.259500 -9.280170 24.328600 0.000019 0.000005 41.196400 -43.126100 -127.989000 22.291600 -0.000001 0.000005 39.698500 5.027380 6.730990 12.994500 -0.242716 -4.980390 88.442100 4.984520 -72.618500 -5.348130 -0.000001 -0.000004 -74.400100 35.202000 -0.707016 -24.328900 0.000322 -0.000009 2.885860 8.034570 -19.839300 -22.291500 -0.000108 -0.000004 -0.849433 5.234010 1.851700 -2.192480 -6.469440 -0.000000 -172.424000 2.201270 -4.048870 39.081100 -0.000007 -0.000012 0.213218 -0.425491 26.616200 40.985400 -0.000006 -0.000013 -2.280410 7.239250 -75.993200 11.754300 -0.000000 0.000003 -0.000499 0.175639 -9.452530 -2.192510 6.469440 -0.000001 -171.252000 6.710880 -177.044000 -39.081100 -0.002282 -0.040193 0.029479 -0.101977 14.381100 -40.985400 0.000008 0.000006 0.489738 3.855540 -71.145200 -11.754300 -0.000006 -0.000006 -0.011128 0.279546 -5.213780
0.000000 0.000000 0.000000 0.000000 0.000000 -0.000000 -2.919370 91.917900 2.347860 84.492800 -0.223970 1.085980 15.735700 0.000005 -0.000001 115.598000 88.248300 -115.007000 8.984550 -0.406207 -0.000000 -4.614390 1.448540 1.240980 16.377300 -0.000001 -0.000001 9.649940 -3.701250 -9.633960 6.456720 -0.000001 -0.000000 6.330570 -11.236300 -14.603700 12.994200 -0.242716 4.980390 -92.535200 6.797180 -69.489200 5.348090 -0.000007 -0.000001 -75.053200 7.102440 -9.294320 24.328600 0.000019 0.000005 40.632200 -42.814200 -128.380000 22.291600 -0.000001 0.000005 39.404900 5.037190 6.517590 12.994500 -0.242716 -4.980390 88.442600 4.966120 -72.564200 -5.348130 -0.000001 -0.000004 -74.428400 35.110000 -0.656408 -24.328900 0.000322 -0.000009 2.917210 8.167370 -19.739500 -22.291500 -0.000108 -0.000004 -0.927782 5.234850 1.829810 -2.192480 -6.469440 -0.000000 -172.399000 2.148110 -4.108450 39.081100 -0.000007 -0.000012 0.208246 -0.416275 26.577300 40.985400 -0.000006 -0.000013 -2.415070 7.272240 -75.859300 11.754300 -0.000000 0.000003 -0.000157 0.170224 -9.672500 -2.192510 6.469440 -0.000001 -171.242000 6.775520 -177.109000 -39.081100 -0.002282 -0.040193 0.030692 -0.106976 14.346500 -40.985400 0.000008 0.000006 0.638667 3.956890 -71.142100 -11.754300 -0.000006 -0.000006 -0.011261 0.280500 -5.174750
0.000000 0.000000 0.000000 0.000000 0.000000 -0.000000 -2.965450 91.928200 2.349520 84.550000 -0.305524 1.066810 15.735700 0.000005 -0.000001 115.151000 88.235500 -114.554000 8.984550 -0.406207 -0.000000 -4.579490 1.434340 1.251070 16.377300 -0.000001 -0.000001 9.621250 -3.703780 -9.651880 6.456720 -0.000001 -0.000000 6.343320 -11.234900 -14.530300 12.994200 -0.242716 4.980390 -92.526400 6.766490 -69.470200 5.348090 -0.000007 -0.000001 -75.095600 7.177400 -9.321640 24.328600 0.000019 0.000005 41.054700 -43.015000 -128.070000 22.291600 -0.000001 0.000005 39.591800 5.015770 6.981130 12.994500 -0.242716 -4.980390 88.441200 4.977570 -72.587100 -5.348130 -0.000001 -0.000004 -74.392100 35.099900 -0.618160 -24.328900 0.000322 -0.000009 2.908260 8.167460 -19.683400 -22.291500 -0.000108 -0.000004 -0.886949 5.235910 1.802040 -2.192480 -6.469440 -0.000000 -172.409000 2.147580 -4.085500 39.081100 -0.000007 -0.000012 0.196108 -0.393300 26.502100 40.985400 -0.000006 -0.000013 -2.687260 7.251870 -75.793800 11.754300 -0.000000 0.000003 -0.000272 0.172077 -9.597210 -2.192510 6.469440 -0.000001 -171.293000 6.829420 -177.093000 -39.081100 -0.002282 -0.040193 0.030443 -0.106385 14.297200 -40.985400 0.000008 0.000006 0.620431 4.045990 -71.113400 -11.754300 -0.000006 -0.000006 -0.011211 0.280143 -5.189360
